<svg width="32" height="32" viewBox="0 0 32 32" fill="none" xmlns="http://www.w3.org/2000/svg">
  <rect width="32" height="32" rx="4" fill="#0A2463"/>
  <path d="M8 20V12H10.5L13 17H13.2L15.7 12H18.2V20H16.2V15L16.3 14.4H16.1L13.9 19H12.3L10.1 14.4H9.9L10 15V20H8Z" fill="#FFFFFF"/>
  <path d="M23 12C22.0333 12 21.2917 12.2833 20.775 12.85C20.2583 13.4167 20 14.2 20 15.2V16.8C20 17.8 20.2583 18.5833 20.775 19.15C21.2917 19.7167 22.0333 20 23 20C23.9667 20 24.7083 19.7167 25.225 19.15C25.7417 18.5833 26 17.8 26 16.8V15.2C26 14.2 25.7417 13.4167 25.225 12.85C24.7083 12.2833 23.9667 12 23 12ZM23.9 16.9C23.9 17.5667 23.8 18.05 23.6 18.35C23.4 18.65 23.1 18.8 22.7 18.8C22.3 18.8 22 18.65 21.8 18.35C21.6 18.05 21.5 17.5667 21.5 16.9V15.1C21.5 14.4333 21.6 13.95 21.8 13.65C22 13.35 22.3 13.2 22.7 13.2C23.1 13.2 23.4 13.35 23.6 13.65C23.8 13.95 23.9 14.4333 23.9 15.1V16.9Z" fill="#E63946"/>
</svg> 